<svg xmlns="http://www.w3.org/2000/svg" viewBox="0 0 512 512"><path d="M324.55 334.258v35.003c0 .67-.01 1.328-.03 1.987-1.054 35.175-29.897 63.36-65.316 63.36V481.2h8.713c12.816 0 23.2 10.384 23.2 23.2H247.31c-13.576 0-24.578-11.002-24.578-24.578V290.876l101.818 43.382z" fill="#81992B"/><path d="M324.55 334.258v35.003c0 .67-.01 1.328-.03 1.987-17.172 8.763-36.624 13.707-57.22 13.707H235.86l-13.13.365v-94.444l101.818 43.382z" fill="#6F8421"/><path d="M504.216 74.454h-83.582l24.426 25.986h58.082l-14.852 33.1h-93.967l-1.013 89.832c-.77 69.044-56.968 124.613-126.012 124.613H235.86l-25.783.72-76.136 2.116C120.803 420.15 73.267 478.03 7.79 504.4l12.025-17.982c19.27-28.833 29.563-62.732 29.563-97.4 0-67.556 27.385-128.728 71.658-173s105.445-71.66 173-71.66l20.445-86.357C321.483 28.46 347.864 7.6 378.227 7.6c3.475 0 6.94.274 10.364.82 3.424.548 6.798 1.37 10.11 2.453l105.516 34.71v28.874z" fill="#94AD38"/><path d="M415.123 133.54h-20.8l-1.012 89.832c-.77 69.044-56.967 124.613-126.01 124.613H235.86l-25.784.72-25.936-37.193s51.71 16.352 127.643-25.834C387.06 243.858 350.68 80.228 350.05 77.4l15.55 50.82 49.523 5.32z" fill="#B1C167"/><path d="M235.855 327.867v41.395c0 36.088-29.255 65.343-65.343 65.343v46.598h8.712c12.813 0 23.2 10.387 23.2 23.2h-43.806c-13.574 0-24.577-11.004-24.577-24.578v-56.998c0-8.85 4.167-17.18 11.246-22.49l25.226-18.92-17.17-10.85c-36.346-22.965-37.478-75.57-2.156-100.08l22.818-1.228c33.608-1.812 61.85 24.95 61.85 58.607z" fill="#81992B"/><path d="M415.098 46.413c.536.115 1.072.17 1.6.17 3.505 0 6.657-2.44 7.422-6.008.878-4.103-1.734-8.142-5.84-9.022l-9.454-2.026c-4.09-.877-8.142 1.733-9.022 5.838-.878 4.103 1.734 8.142 5.84 9.022l9.454 2.026zM341.475 314.28c-6.305 5.072-13.007 9.415-20.02 13.042-.3.135-.59.29-.867.46-16.37 8.293-34.436 12.605-53.29 12.605h-23.845v-30.39c0-4.196-3.4-7.598-7.598-7.598-4.197 0-7.598 3.4-7.598 7.597v59.264c0 31.84-25.903 57.746-57.745 57.746-4.197 0-7.598 3.402-7.598 7.598v46.598c0 4.196 3.4 7.598 7.598 7.598h8.713c5.846 0 10.95 3.232 13.62 8.003H158.62c-9.363 0-16.98-7.617-16.98-16.98v-56.997c0-6.423 3.068-12.558 8.206-16.41l25.225-18.92c2-1.5 3.135-3.885 3.034-6.383-.1-2.496-1.42-4.785-3.533-6.12l-17.17-10.85c-14.908-9.42-24.035-25.57-24.415-43.2s8.043-34.16 22.532-44.213c3.448-2.392 4.304-7.126 1.912-10.575-2.392-3.448-7.125-4.304-10.576-1.91-18.687 12.966-29.552 34.284-29.062 57.024.236 10.953 3.096 21.46 8.14 30.77-6.476 31.79-20.712 61.774-41.314 86.857-15.394 18.742-34.16 34.542-55.15 46.56 18.013-28.998 27.504-62.21 27.504-96.44 0-7.867.39-15.807 1.16-23.6.412-4.177-2.64-7.897-6.816-8.31-4.174-.416-7.896 2.64-8.308 6.816-.82 8.287-1.233 16.73-1.233 25.093 0 33.273-9.78 65.494-28.28 93.177L1.47 500.177c-1.854 2.77-1.685 6.426.417 9.014 1.474 1.818 3.658 2.81 5.9 2.81.95 0 1.914-.18 2.836-.55 33.303-13.415 62.95-35.166 85.736-62.907 19.385-23.6 33.527-51.236 41.44-80.674 3.446 3.405 7.284 6.47 11.48 9.12l7.853 4.962-16.406 12.305c-8.945 6.71-14.285 17.388-14.285 28.57v56.997c0 17.742 14.434 32.176 32.176 32.176h43.804c4.197 0 7.598-3.402 7.598-7.598 0-16.982-13.816-30.798-30.797-30.798h-1.114V441.81c13.853-1.442 26.564-6.78 37.02-14.892v52.904c0 17.742 14.436 32.177 32.18 32.177h43.805c4.197 0 7.598-3.403 7.598-7.6 0-16.98-13.816-30.798-30.798-30.798H266.8v-31.79c36.664-3.812 65.346-34.896 65.346-72.55v-30.48c6.612-3.663 12.924-7.893 18.852-12.663 3.27-2.63 3.788-7.415 1.158-10.684-2.628-3.268-7.41-3.787-10.68-1.157zm-24.524 54.98c0 31.843-25.904 57.75-57.747 57.75-4.197 0-7.598 3.4-7.598 7.597V481.2c0 4.196 3.4 7.598 7.598 7.598h8.714c5.847 0 10.952 3.232 13.622 8.004h-34.23c-9.363 0-16.98-7.618-16.98-16.98v-68.88c8.263-11.824 13.123-26.193 13.123-41.682v-13.677h23.844c17.076 0 33.953-3.31 49.654-9.588v23.266z"/><path d="M511.813 74.454V45.58c0-3.28-2.106-6.192-5.224-7.218L401.06 3.65c-3.692-1.21-7.486-2.13-11.274-2.734C385.982.308 382.093 0 378.223 0c-34.038 0-63.29 23.13-71.14 56.25l-19.076 80.58c-65.127 1.516-126.125 27.59-172.346 73.814-35.087 35.087-58.863 79.19-68.757 127.544-.84 4.11 1.81 8.126 5.92 8.967.516.105 1.028.156 1.533.156 3.534 0 6.7-2.478 7.436-6.076 9.296-45.427 31.64-86.87 64.617-119.846 2.617-2.618 5.29-5.16 8.007-7.64l7.35 6.033c1.414 1.16 3.12 1.726 4.817 1.726 2.195 0 4.375-.948 5.878-2.778 2.66-3.244 2.19-8.032-1.054-10.693l-5.256-4.314c7.18-5.752 14.644-11.06 22.363-15.895l4.663 7.723c1.427 2.364 3.938 3.672 6.51 3.672 1.338 0 2.694-.354 3.922-1.095 3.593-2.17 4.746-6.84 2.576-10.432l-4.54-7.518c7.48-4.038 15.164-7.657 23.023-10.853l3.62 10.577c1.08 3.154 4.03 5.14 7.188 5.14.817 0 1.647-.134 2.463-.412 3.97-1.36 6.088-5.68 4.728-9.65l-3.74-10.926c9.325-3.103 18.86-5.63 28.565-7.552l5.426 16.118c1.068 3.173 4.027 5.176 7.2 5.176.803 0 1.62-.13 2.425-.4 3.976-1.338 6.115-5.647 4.777-9.625l-4.63-13.754c9.124-1.198 18.37-1.872 27.705-2.012l16.956 21.39c1.5 1.892 3.718 2.878 5.96 2.878 1.652 0 3.317-.537 4.714-1.644 3.29-2.607 3.84-7.387 1.234-10.674l-16.983-21.425 19.596-82.774c6.216-26.237 29.39-44.56 56.35-44.56 3.07 0 6.154.245 9.167.726 3.002.48 6.012 1.21 8.935 2.167l100.29 32.99v15.775h-75.983l-.036.003h-26.194c-4.197 0-7.598 3.402-7.598 7.598s3.4 7.598 7.598 7.598h22.948l22.173 23.59c1.437 1.527 3.44 2.393 5.537 2.393h46.344l-8.034 17.902H373.078l-.932-1.578c-15.363-26.082-18.892-57.593-9.682-86.452 1.277-3.998-.93-8.273-4.928-9.55-4-1.273-8.274.93-9.55 4.93-10.524 32.976-6.49 68.98 11.07 98.793l3.142 5.32c1.368 2.313 3.855 3.733 6.543 3.733h17.898l-.927 82.15c-.297 26.747-9.28 51.89-25.98 72.71-2.627 3.273-2.1 8.055 1.172 10.68 3.272 2.627 8.055 2.1 10.68-1.172 17.275-21.535 27.207-47.17 29.01-74.53h17.565v9.117c0 4.197 3.4 7.6 7.598 7.6 4.197 0 7.598-3.403 7.598-7.6v-16.714c0-4.196-3.4-7.598-7.598-7.598h-24.762l.842-74.64h86.453c2.993 0 5.707-1.758 6.933-4.488l14.853-33.1c1.055-2.35.846-5.076-.554-7.24-1.4-2.162-3.802-3.468-6.38-3.468h-54.796l-10.142-10.79h66.012c4.197 0 7.6-3.402 7.6-7.598z"/><path d="M363.93 247.69c4.198 0 7.6-3.4 7.6-7.597v-16.715c0-4.196-3.402-7.598-7.6-7.598h-16.57l15.016-19.708c2.543-3.338 1.9-8.106-1.44-10.65-3.338-2.543-8.107-1.898-10.65 1.44l-24.313 31.91c-1.75 2.3-2.048 5.39-.765 7.978 1.283 2.59 3.92 4.226 6.81 4.226h24.313v9.117c.002 4.196 3.403 7.598 7.6 7.598z"/></svg>